<svg xmlns="http://www.w3.org/2000/svg" viewBox="0 0 52.856 52.856"><defs><style>.a{fill:#c40b28;}.b{fill:none;stroke:#fff;stroke-width:2px;}.c{fill:#fff;}</style></defs><title>image_magnifying_glass</title><circle class="a" cx="26.428" cy="26.428" r="26.18"/><circle class="b" cx="26.428" cy="26.428" r="25.428"/><path class="c" d="M36.477,41.828l-3.085-3.085A6.406,6.406,0,0,0,34.7,34.816a6.5,6.5,0,0,0-6.464-6.545h-.082a6.5,6.5,0,0,0-6.545,6.463v.082a6.506,6.506,0,0,0,6.464,6.545h.081a6.4,6.4,0,0,0,3.927-1.31l3.086,3.086Zm-13-7.012a4.63,4.63,0,0,1,4.585-4.675h.09a4.629,4.629,0,0,1,4.675,4.584v.091a4.629,4.629,0,0,1-4.584,4.675h-.091a4.63,4.63,0,0,1-4.675-4.585Z" transform="translate(-2.572 -9.232)"/></svg>